<svg id="Layer_1" data-name="Layer 1" xmlns="http://www.w3.org/2000/svg" xmlns:xlink="http://www.w3.org/1999/xlink" viewBox="0 0 444 426">
  <defs>
    <style>
      .cls-1 {
        fill: url(#linear-gradient);
      }

      .cls-2 {
        fill: url(#linear-gradient-2);
      }

      .cls-3 {
        fill: url(#linear-gradient-3);
      }

      .cls-4 {
        fill: url(#linear-gradient-4);
      }
    </style>
    <linearGradient id="linear-gradient" x1="50.04" y1="235.28" x2="50.69" y2="235.28" gradientUnits="userSpaceOnUse">
      <stop offset="0" stop-color="#2e439b"/>
      <stop offset="1" stop-color="#11bfd3"/>
    </linearGradient>
    <linearGradient id="linear-gradient-2" x1="76.09" y1="138.29" x2="76.69" y2="138.29" xlink:href="#linear-gradient"/>
    <linearGradient id="linear-gradient-3" x1="223.77" y1="390.22" x2="223.77" y2="234.06" xlink:href="#linear-gradient"/>
    <linearGradient id="linear-gradient-4" x1="222" y1="317.06" x2="222" y2="35.78" xlink:href="#linear-gradient"/>
  </defs>
  <title>Logo</title>
  <g>
    <path class="cls-1" d="M50.69,235.44h0a5.56,5.56,0,0,0-.65-.32A5.56,5.56,0,0,1,50.69,235.44Z"/>
    <path class="cls-2" d="M76.69,138.44h0c-.19-.09-.42-.24-.6-.31C76.27,138.2,76.5,138.35,76.69,138.44Z"/>
    <path class="cls-3" d="M313.35,321.85c-1-.44-2.57-.25-2.75-1.57s1.52-1.52,2.39-2.19c.53-.41,1.11-.73,1.66-1.11a21.15,21.15,0,1,0-32.82-12.91c1.48,7.21,6,11.87,12.61,15.54l-4.34,2.21c-10.11,3.65-15.34,11.55-18.5,21.72C264.75,327,252.87,317,235,313.27c7.11-3.07,13.61-6,18.07-11.85,14.6-14.76,14.5-39.39-.21-54.87s-39.2-16.74-54.8-3a3.4,3.4,0,0,0-2,1.94,13.82,13.82,0,0,0-4.65,5.16c-14.78,18.87-8.19,47.61,13.52,59.22,1.62.87,4.08,1,4.16,3.65a7.29,7.29,0,0,0,1.35,2.81,7.29,7.29,0,0,1-1.35-2.81c-1.68.67-3.35,1.36-5,2-11.69,4.37-20.59,11.81-25.83,23.31-1.38.8-.68,3.3-2.82,3.51-3.82-11.17-9.24-17.24-18.37-20.63-1.18-1.53-4-.49-4.78-3.15,1-.58,2-1.1,3-1.66A21.18,21.18,0,0,0,139.37,278c-8,2.2-13.42,7.56-15.07,15.68-1.79,8.78.74,16.42,8.23,22,1.72,1.27,4.65,1.74,3.77,5-13.36,4.82-21,15.27-21.46,28.79-.11,3.38,1,5.41,3.75,7.36,26.34,18.76,55.58,29.83,87.76,32.6,11.55,1,23.24,1.36,34.81-.67a143.28,143.28,0,0,0,50-12.95c14.53-5.46,27.46-13.66,39.71-23.05,1.38-1.06,2.65-2.15,1.29-4.07C331,336.14,325,327,313.35,321.85Z"/>
    <path class="cls-4" d="M399,205.81c-.72-16.45-3.06-32.62-8.95-48.12-.48-1.75-.82-3.56-1.46-5.25-16.3-43-44.54-75.45-85.3-96.8C293,50.21,282,46.38,270.67,43.13c-11.13-3.18-22.32-4.7-33.6-6.35-21.77-2.56-43-.1-64,6.09a158.68,158.68,0,0,0-52,24.85c-2.32,1.59-4.73,3.06-6.93,4.8-11.22,8.88-21.83,18.4-30.25,30.12.29.09.71.14,1,.24-.3-.1-.72-.15-1-.24A94.42,94.42,0,0,0,70,122.58c-3.36,4.17-5.46,9.09-7.71,13.85C54.74,152.42,49,169,47.14,186.72a9.92,9.92,0,0,0-.86,5.07l-.18,3.91a3.27,3.27,0,0,1,.67.38,3.27,3.27,0,0,0-.67-.38,145.41,145.41,0,0,0,1.19,45c.06.61.11,1.23.17,1.85l.81,4c4.56,25.73,15.09,48.83,30.48,70.42,3.66-6.63,7-12.73,10.41-18.72,1-1.74.08-2.82-.68-4-7.32-11.77-12.58-24.45-16.81-37.6-.85-3-1.71-6-2.56-9h0c-3.32-15.17-3.66-30.55-3.27-46,.07-1.65.15-3.31.23-5a8.31,8.31,0,0,0,.79-5A165.85,165.85,0,0,1,79.29,149a7.42,7.42,0,0,0,.71-4.33,6.1,6.1,0,0,0,2.92-5l1-2-1.54,0,1.54,0,16.16-23A221.23,221.23,0,0,1,127,88.5a166.14,166.14,0,0,1,55.06-26.93c.65.13.91-.25,1.08-.76a16.08,16.08,0,0,0,3-.17c22.58-5.42,45.23-5.21,68-1.08l1.86.22,14.14,3.9a11.15,11.15,0,0,0,1.72.95c26.07,8.72,48.08,23.57,66.58,43.82,12.21,13.36,21.28,28.71,28.75,45.08,5.76,15.6,9.85,31.59,11.19,48.22.65,16.16-.29,32.19-4,48-.36,1-.71,2-1.07,3-.26,1.35-.53,2.71-.8,4.06a9.83,9.83,0,0,0,1.13.29,9.83,9.83,0,0,1-1.13-.29,164.69,164.69,0,0,1-16.81,37.66c-.66,1.06-1.66,2-.77,3.59,3.5,6.18,6.9,12.4,10.57,19,10.74-15.21,19.45-30.93,24.63-48.46a154.08,154.08,0,0,0,8.87-46.84C399,216.44,399.26,211.11,399,205.81ZM50.69,235.44a5.56,5.56,0,0,0-.65-.32,5.56,5.56,0,0,1,.65.32Zm26-97c-.19-.09-.42-.24-.6-.31.18.07.41.22.6.31Z"/>
  </g>
</svg>
